# xmcd CD database file
#
# Track frame offsets:
#	150
#	18939
#	37224
#	59483
#	74712
#	91905
#	113776
#	124216
#	142319
#	155855
#	169448
#	184743
#	202742
#	220369
#	234719
#
# Disc length: 3368 seconds
#
# Revision: 3
# Processed by: cddbd v1.4PL0 Copyright (c) Steve Scherf et al.
# Submitted via: CDex 1.50Beta7
#
DISCID=ef0d260f
DTITLE=Various Artist - Christmas Time
DYEAR=2001
DGENRE=New Age
TTITLE0=Angels We Have Head On High - John Adomey
TTITLE1=What Child Is This - Stuard Hoffman
TTITLE2=The Little Drummer Boy - Manuel Iman
TTITLE3=Christmas Lullaby - Ron Clearfield
TTITLE4=Hark!The Herald Angels Sing - Michael Whalen
TTITLE5=God Rest Ye Merry Gentlemen - Nigel Holton
TTITLE6=Campanilleros - Manuel Lman
TTITLE7=We three Kings - Eduardo Del Signore
TTITLE8=O Come all Ye Faithful - Kim O'keary
TTITLE9=The Holly And The Ivy - John Serrie
TTITLE10=The First Noel - John Adomey
TTITLE11=Coventry Carol - Nigel Holton
TTITLE12=Happy Christmas - Geoff Bridgford
TTITLE13=O Come,O Come Emmanuel - Ron Clearfield
TTITLE14=Away In A Manger - John Mills
EXTD=YEAR: 2001
EXTT0=
EXTT1=
EXTT2=
EXTT3=
EXTT4=
EXTT5=
EXTT6=
EXTT7=
EXTT8=
EXTT9=
EXTT10=
EXTT11=
EXTT12=
EXTT13=
EXTT14=
PLAYORDER=
